<?xml version="1.0" encoding="iso-8859-1"?>
<!-- Generator: Adobe Illustrator 18.0.0, SVG Export Plug-In . SVG Version: 6.00 Build 0)  -->
<!DOCTYPE svg PUBLIC "-//W3C//DTD SVG 1.1//EN" "http://www.w3.org/Graphics/SVG/1.1/DTD/svg11.dtd">
<svg version="1.1" id="Capa_1" xmlns="http://www.w3.org/2000/svg" xmlns:xlink="http://www.w3.org/1999/xlink" x="0px" y="0px"
	 viewBox="0 0 60 60" style="enable-background:new 0 0 60 60;" xml:space="preserve">
<g>
	<path d="M59.973,26.535l-0.003-0.057l-0.147-0.082L32.543,0.999c-1.426-1.328-3.66-1.328-5.086,0L0.111,26.457L0,26.53v0.03v32.308
		v1.129h1.129h56.127h1.615h0.449H60v-1.129V27.101v-0.54L59.973,26.535z M32.072,42.987L58,28.69v28.593l-4.706-2.594
		L32.072,42.987z M28.82,2.462c0.662-0.615,1.697-0.615,2.359,0l26.13,24.327L30.001,41.845L2.692,26.788L28.82,2.462z M2,57.997
		V28.69l25.929,14.297l0,0l10.316,5.688l16.907,9.322H2z"/>
	<path d="M42,27.997h1c0.553,0,1-0.447,1-1s-0.447-1-1-1h-1c-0.553,0-1,0.447-1,1S41.447,27.997,42,27.997z"/>
	<path d="M37,27.997h1c0.553,0,1-0.447,1-1s-0.447-1-1-1h-1c-0.553,0-1,0.447-1,1S36.447,27.997,37,27.997z"/>
	<path d="M47,27.997h1c0.553,0,1-0.447,1-1s-0.447-1-1-1h-1c-0.553,0-1,0.447-1,1S46.447,27.997,47,27.997z"/>
	<path d="M12,27.997h1c0.553,0,1-0.447,1-1s-0.447-1-1-1h-1c-0.553,0-1,0.447-1,1S11.447,27.997,12,27.997z"/>
	<path d="M22,27.997h1c0.553,0,1-0.447,1-1s-0.447-1-1-1h-1c-0.553,0-1,0.447-1,1S21.447,27.997,22,27.997z"/>
	<path d="M32,27.997h1c0.553,0,1-0.447,1-1s-0.447-1-1-1h-1c-0.553,0-1,0.447-1,1S31.447,27.997,32,27.997z"/>
	<path d="M17,27.997h1c0.553,0,1-0.447,1-1s-0.447-1-1-1h-1c-0.553,0-1,0.447-1,1S16.447,27.997,17,27.997z"/>
	<path d="M27,27.997h1c0.553,0,1-0.447,1-1s-0.447-1-1-1h-1c-0.553,0-1,0.447-1,1S26.447,27.997,27,27.997z"/>
</g>
<g>
</g>
<g>
</g>
<g>
</g>
<g>
</g>
<g>
</g>
<g>
</g>
<g>
</g>
<g>
</g>
<g>
</g>
<g>
</g>
<g>
</g>
<g>
</g>
<g>
</g>
<g>
</g>
<g>
</g>
</svg>
